<svg width="708" height="490" viewBox="0 0 708 490" fill="none" xmlns="http://www.w3.org/2000/svg" xmlns:xlink="http://www.w3.org/1999/xlink">
<path d="M0 0H708C708 0 708 115 708 243C708 371 708 490 708 490H0C0 490 43.5 372.5 43.5 245C43.5 117.5 0 0 0 0Z" fill="#D9D9D9"/>
<path d="M0 0H708C708 0 708 115 708 243C708 371 708 490 708 490H0C0 490 43.5 372.5 43.5 245C43.5 117.5 0 0 0 0Z" fill="url(#pattern0)"/>
<path d="M0 0H708C708 0 708 115 708 243C708 371 708 490 708 490H0C0 490 43.5 372.5 43.5 245C43.5 117.5 0 0 0 0Z" fill="url(#pattern1)"/>
</svg>
